<svg xmlns="http://www.w3.org/2000/svg" viewBox="0 0 512 512" width="512" height="512">
  <rect width="512" height="512" fill="#0b0a1e"/>
  <defs>
    <clipPath id="sun"><circle cx="256" cy="220" r="120"/></clipPath>
    <linearGradient id="sky" x1="0" y1="0" x2="0" y2="1">
      <stop offset="0" stop-color="#3a1a4a"/>
      <stop offset="1" stop-color="#140a26"/>
    </linearGradient>
  </defs>
  <rect width="512" height="300" fill="url(#sky)"/>
  <g clip-path="url(#sun)">
    <rect x="120" y="100" width="272" height="240" fill="#ffd166"/>
    <rect x="120" y="150" width="272" height="240" fill="#ff7b00"/>
    <rect x="120" y="196" width="272" height="240" fill="#ff2d8e"/>
    <g fill="#0b0a1e">
      <rect x="120" y="210" width="272" height="7"/>
      <rect x="120" y="232" width="272" height="9"/>
      <rect x="120" y="258" width="272" height="12"/>
      <rect x="120" y="290" width="272" height="16"/>
    </g>
  </g>
  <rect x="0" y="300" width="512" height="212" fill="#120a28"/>
  <line x1="0" y1="300" x2="512" y2="300" stroke="#27e7ff" stroke-width="4"/>
  <g stroke="#27e7ff" stroke-width="6" stroke-linecap="round">
    <line x1="226" y1="300" x2="120" y2="500"/>
    <line x1="286" y1="300" x2="392" y2="500"/>
  </g>
  <g stroke="#ff39c0" stroke-width="3" opacity="0.8">
    <line x1="0" y1="360" x2="512" y2="360"/>
    <line x1="0" y1="430" x2="512" y2="430"/>
  </g>
</svg>
